<svg width="33" height="30" viewBox="0 0 33 30" fill="none" xmlns="http://www.w3.org/2000/svg">
<path d="M3 24H30V27C30 28.1046 29.1046 29 28 29H5C3.89543 29 3 28.1046 3 27V24Z" fill="#FFD296"/>
<path d="M12.1216 13.4815V6.37838C12.1216 3.96027 14.0819 2 16.5 2V2C18.9181 2 20.8784 3.96027 20.8784 6.37838V13.4815M3 24V26C3 27.6569 4.34315 29 6 29H27C28.6569 29 30 27.6569 30 26V24M3 24V10.037C3 9.48475 3.44772 9.03704 4 9.03704H29C29.5523 9.03704 30 9.48475 30 10.037V24M3 24H30" stroke="#EA9D34"/>
</svg>
