<svg width="34" height="30" viewBox="0 0 34 30" fill="none" xmlns="http://www.w3.org/2000/svg">
<path d="M1 4H4.08843C4.49772 4 4.86569 4.24941 5.0173 4.62959L11.2944 20.3704C11.446 20.7506 11.814 21 12.2233 21H30" stroke="#EA9D34" stroke-linecap="round"/>
<path d="M13.7554 17.315L10.4364 7.315C10.2216 6.66771 10.7035 6 11.3855 6H29.6537C30.3243 6 30.8048 6.64692 30.6111 7.28886L27.5939 17.2889C27.4665 17.7111 27.0775 18 26.6365 18H14.7045C14.2736 18 13.8911 17.724 13.7554 17.315Z" fill="#FFD296" stroke="#EA9D34" stroke-linecap="round"/>
<path d="M15 23C15.5523 23.5523 15.5523 24.4477 15 25C14.4477 25.5523 13.5523 25.5523 13 25C12.4477 24.4477 12.4477 23.5523 13 23C13.5523 22.4477 14.4477 22.4477 15 23Z" fill="#FFD296" stroke="#EA9D34" stroke-linecap="round"/>
<path d="M27 23C27.5523 23.5523 27.5523 24.4477 27 25C26.4477 25.5523 25.5523 25.5523 25 25C24.4477 24.4477 24.4477 23.5523 25 23C25.5523 22.4477 26.4477 22.4477 27 23Z" fill="#FFD296" stroke="#EA9D34" stroke-linecap="round"/>
</svg>
