<svg width="36" height="32" viewBox="0 0 36 32" fill="none" xmlns="http://www.w3.org/2000/svg">
<path d="M8.18094 30V17.7141C8.18094 17.1629 7.73491 16.7156 7.18372 16.7141L2.65733 16.7015C1.73447 16.6989 1.30733 15.5542 2.00293 14.9478L17.3428 1.57299C17.7194 1.24464 18.2806 1.24464 18.6572 1.57299L33.9886 14.9404C34.6852 15.5477 34.2556 16.6941 33.3314 16.6941H28.8196C28.2673 16.6941 27.8196 17.1418 27.8196 17.6941V23.847V30C27.8196 30.5523 27.3719 31 26.8196 31H22.9099H21.455C20.9028 31 20.4551 30.5523 20.455 30.0001L20.4548 25.7917C20.4548 25.2394 20.0071 24.7917 19.4548 24.7917H18H16.5454C15.9932 24.7917 15.5454 25.2395 15.5454 25.7917V30C15.5454 30.5523 15.0977 31 14.5454 31H13.0906H9.18094C8.62865 31 8.18094 30.5523 8.18094 30Z" fill="#FFD296" stroke="#EA9D34"/>
</svg>
